<svg width="28" height="29" viewBox="0 0 28 29" fill="none" xmlns="http://www.w3.org/2000/svg">
<g id="1161953_instagram_icon 1">
<g id="Group">
<path id="Vector" d="M13.9265 8.74805C10.4697 8.74805 7.60547 11.5629 7.60547 15.069C7.60547 18.5752 10.4203 21.39 13.9265 21.39C17.4326 21.39 20.2474 18.5258 20.2474 15.069C20.2474 11.6122 17.3832 8.74805 13.9265 8.74805ZM13.9265 19.1184C11.7042 19.1184 9.87707 17.2913 9.87707 15.069C9.87707 12.8468 11.7042 11.0197 13.9265 11.0197C16.1487 11.0197 17.9758 12.8468 17.9758 15.069C17.9758 17.2913 16.1487 19.1184 13.9265 19.1184Z" fill="white"/>
<path id="Vector_2" d="M20.4946 10.0322C21.2855 10.0322 21.9267 9.39099 21.9267 8.60007C21.9267 7.80914 21.2855 7.16797 20.4946 7.16797C19.7037 7.16797 19.0625 7.80914 19.0625 8.60007C19.0625 9.39099 19.7037 10.0322 20.4946 10.0322Z" fill="white"/>
<path id="Vector_3" d="M24.1982 4.89578C22.9143 3.56245 21.0871 2.87109 19.013 2.87109H8.84018C4.54389 2.87109 1.67969 5.73529 1.67969 10.0316V20.155C1.67969 22.2785 2.37105 24.1057 3.75376 25.439C5.0871 26.7229 6.86487 27.3649 8.88956 27.3649H18.9636C21.0871 27.3649 22.8649 26.6736 24.1488 25.439C25.4822 24.155 26.1735 22.3279 26.1735 20.2044V10.0316C26.1735 7.95751 25.4822 6.17974 24.1982 4.89578ZM24.0007 20.2044C24.0007 21.7353 23.4575 22.9699 22.5686 23.8094C21.6797 24.6489 20.4451 25.0933 18.9636 25.0933H8.88956C7.40808 25.0933 6.17351 24.6489 5.28463 23.8094C4.39574 22.9205 3.95129 21.6859 3.95129 20.155V10.0316C3.95129 8.55011 4.39574 7.31554 5.28463 6.42665C6.12413 5.58714 7.40808 5.1427 8.88956 5.1427H19.0624C20.5439 5.1427 21.7785 5.58714 22.6673 6.47603C23.5068 7.36492 24.0007 8.59949 24.0007 10.0316V20.2044Z" fill="white"/>
</g>
</g>
</svg>
