<svg width="28" height="33" viewBox="0 0 28 33" fill="none" xmlns="http://www.w3.org/2000/svg">
<g id="8546904_linkedin_in_icon 1" clip-path="url(#clip0_305_9154)">
<path id="Vector" d="M6.2675 28.4994H0.4625V9.80562H6.2675V28.4994ZM3.36188 7.25562C1.50563 7.25562 0 5.71812 0 3.86187C1.32862e-08 2.97025 0.354197 2.11514 0.98467 1.48467C1.61514 0.854196 2.47025 0.5 3.36188 0.5C4.2535 0.5 5.10861 0.854196 5.73908 1.48467C6.36955 2.11514 6.72375 2.97025 6.72375 3.86187C6.72375 5.71812 5.2175 7.25562 3.36188 7.25562ZM27.9937 28.4994H22.2013V19.3994C22.2013 17.2306 22.1575 14.4494 19.1831 14.4494C16.165 14.4494 15.7025 16.8056 15.7025 19.2431V28.4994H9.90375V9.80562H15.4712V12.3556H15.5525C16.3275 10.8869 18.2206 9.33687 21.045 9.33687C26.92 9.33687 28 13.2056 28 18.2306V28.4994H27.9937Z" fill="white"/>
</g>
<defs>
<clipPath id="clip0_305_9154">
<rect width="28" height="32" fill="white" transform="translate(0 0.5)"/>
</clipPath>
</defs>
</svg>
