<svg width="29" height="29" viewBox="0 0 29 29" fill="none" xmlns="http://www.w3.org/2000/svg">
<g id="4829869_arrow_next_right_icon 1">
<g id="Layer 2">
<path id="Vector" d="M19.7483 8.37406C19.6663 8.4554 19.6012 8.55218 19.5568 8.6588C19.5123 8.76543 19.4895 8.8798 19.4895 8.99531C19.4895 9.11082 19.5123 9.22519 19.5568 9.33181C19.6012 9.43844 19.6663 9.53522 19.7483 9.61656L23.7733 13.6416H3.17578C2.94372 13.6416 2.72116 13.7337 2.55706 13.8978C2.39297 14.0619 2.30078 14.2845 2.30078 14.5166C2.30078 14.7486 2.39297 14.9712 2.55706 15.1353C2.72116 15.2994 2.94372 15.3916 3.17578 15.3916H23.7558L19.7483 19.3903C19.5853 19.5542 19.4938 19.776 19.4938 20.0072C19.4938 20.2383 19.5853 20.4601 19.7483 20.6241C19.9122 20.787 20.134 20.8785 20.3652 20.8785C20.5963 20.8785 20.8181 20.787 20.982 20.6241L26.547 15.0591C26.6219 14.9872 26.6815 14.9009 26.7222 14.8054C26.763 14.71 26.7839 14.6072 26.7839 14.5034C26.7839 14.3996 26.763 14.2969 26.7222 14.2014C26.6815 14.1059 26.6219 14.0197 26.547 13.9478L20.9908 8.37406C20.9094 8.29205 20.8127 8.22695 20.706 8.18253C20.5994 8.13811 20.485 8.11523 20.3695 8.11523C20.254 8.11523 20.1397 8.13811 20.033 8.18253C19.9264 8.22695 19.8296 8.29205 19.7483 8.37406Z" fill="#E92429"/>
</g>
</g>
</svg>
