<svg width="28" height="29" viewBox="0 0 28 29" fill="none" xmlns="http://www.w3.org/2000/svg">
<g id="5305166_call_chat_mobile_whatsapp_whatsapp logo_icon 1" clip-path="url(#clip0_305_9145)">
<path id="WhatsApp-Logo" fill-rule="evenodd" clip-rule="evenodd" d="M20.4146 17.2934C20.0662 17.1191 18.3536 16.2765 18.0342 16.1601C17.715 16.0438 17.4828 15.9858 17.2505 16.3344C17.0183 16.6831 16.3507 17.4678 16.1475 17.7003C15.9443 17.9328 15.7411 17.962 15.3928 17.7875C15.0444 17.6132 13.922 17.2454 12.5914 16.0585C11.5559 15.1348 10.8567 13.9941 10.6536 13.6453C10.4503 13.2966 10.6319 13.1081 10.8063 12.9344C10.963 12.7783 11.1547 12.5275 11.3288 12.3241C11.503 12.1207 11.561 11.9753 11.6771 11.743C11.7933 11.5104 11.7352 11.3071 11.6481 11.1327C11.561 10.9584 10.8644 9.2437 10.5741 8.5461C10.2913 7.86694 10.0041 7.95892 9.79032 7.94815C9.58737 7.93809 9.35484 7.93595 9.1227 7.93595C8.89049 7.93595 8.51304 8.02312 8.19372 8.37176C7.87445 8.7205 6.97457 9.56334 6.97457 11.2779C6.97457 12.9926 8.22276 14.6489 8.39694 14.8814C8.57112 15.114 10.8533 18.6324 14.3478 20.1413C15.1788 20.5003 15.8278 20.7146 16.3336 20.8751C17.1681 21.1403 17.9275 21.1029 18.5277 21.0132C19.197 20.9132 20.5887 20.1705 20.879 19.3569C21.1693 18.543 21.1693 17.8456 21.0822 17.7003C20.9951 17.555 20.7629 17.4678 20.4146 17.2934ZM14.0586 25.9719H14.0539C11.9745 25.9711 9.93519 25.4125 8.15609 24.3568L7.73292 24.1056L3.34731 25.2561L4.5179 20.9801L4.24244 20.5416C3.08246 18.6968 2.4698 16.5644 2.47073 14.3749C2.4733 7.98605 7.67151 2.78827 14.0632 2.78827C17.1582 2.78931 20.0676 3.99621 22.2554 6.1865C24.4432 8.37673 25.6473 11.2881 25.6461 14.3843C25.6435 20.7736 20.4453 25.9719 14.0586 25.9719ZM23.9205 4.5222C21.2883 1.88702 17.7879 0.435125 14.0584 0.433594C6.37405 0.433594 0.11993 6.68733 0.116812 14.374C0.115828 16.8313 0.75775 19.2295 1.97783 21.3439L0 28.5682L7.39052 26.6295C9.42687 27.7402 11.7195 28.3256 14.0529 28.3264H14.0586C21.7422 28.3264 27.9968 22.072 28 14.3852C28.0014 10.66 26.5526 7.15737 23.9205 4.5222Z" fill="white"/>
</g>
<defs>
<clipPath id="clip0_305_9145">
<rect width="28" height="28" fill="white" transform="translate(0 0.5)"/>
</clipPath>
</defs>
</svg>
