<svg width="40" height="37" viewBox="0 0 40 37" fill="none" xmlns="http://www.w3.org/2000/svg">
<g id="2959742_broadcast_google_streaming_video_youtube_icon 1">
<path id="Vector" d="M20 9.58203C20.0719 9.58203 27.1625 9.58203 31.8438 9.88578L32.05 9.90266C32.675 9.95328 33.35 10.0123 34.0125 10.6283C34.325 10.9095 34.6813 11.9052 34.8031 12.6167C35.0007 14.1771 35.105 15.7459 35.1156 17.3164V19.6339C35.1046 21.2053 35.0003 22.775 34.8031 24.3364C34.6875 25.0311 34.3219 26.0408 34.0156 26.3052C33.3562 26.9183 32.6656 26.9773 32.0563 27.0308L31.8438 27.0505C27.2437 27.3317 20.3156 27.3598 20.0031 27.3598C19.6438 27.3598 11.2531 27.2839 8.575 27.0786C8.41563 27.0561 8.2625 27.0364 8.08125 27.0195C7.36875 26.9436 6.55937 26.8564 5.97812 26.3136C5.66562 26.0323 5.30938 25.0395 5.19063 24.3308C4.99308 22.7704 4.88876 21.2016 4.87812 19.6311V17.3361C4.88923 15.7656 4.99355 14.1968 5.19063 12.6364C5.3125 11.9192 5.675 10.9236 5.98125 10.648C6.64375 10.032 7.33437 9.97578 7.94375 9.92234L8.15 9.90547C12.8375 9.60453 19.9219 9.60172 19.9906 9.60172H20M20 7.77359C20 7.77359 12.7844 7.77359 7.975 8.08297C7.30312 8.15328 5.84063 8.15891 4.5375 9.37391C3.50938 10.302 3.17187 12.4086 3.17187 12.4086C2.95335 14.0441 2.83339 15.689 2.8125 17.3361V19.6536C2.82737 21.307 2.94212 22.9585 3.15625 24.6008C3.15625 24.6008 3.49063 26.7073 4.52188 27.6327C5.83125 28.8477 7.54688 28.8111 8.3125 28.9405C11.0625 29.1739 20 29.247 20 29.247C20 29.247 27.2219 29.247 32.0344 28.9292C32.7063 28.8589 34.1719 28.8505 35.4719 27.6355C36.5 26.7102 36.8375 24.6036 36.8375 24.6036C37.0537 22.9615 37.1705 21.31 37.1875 19.6564V17.3389C37.1726 15.6855 37.0578 14.034 36.8438 12.3917C36.8438 12.3917 36.5094 10.2852 35.4781 9.35703C34.1719 8.14203 32.7062 8.13359 32.0406 8.06609C27.2219 7.75391 20 7.75391 20 7.75391V7.77359Z" fill="white"/>
<path id="Vector_2" d="M16.9141 13.8906V23.11L25.6609 18.5003L16.9141 13.8906Z" fill="white"/>
</g>
</svg>
